<mxfile host="app.diagrams.net" modified="2021-08-22T23:56:54.952Z" agent="5.0 (X11)" etag="t9syxPI-e14Xfy_2Li_y" version="14.8.1" type="github">
  <diagram id="kgpKYQtTHZ0yAKxKKP6v" name="Page-1">
    <mxGraphModel dx="957" dy="757" grid="1" gridSize="10" guides="1" tooltips="1" connect="1" arrows="1" fold="1" page="1" pageScale="1" pageWidth="850" pageHeight="1100" math="0" shadow="0">
      <root>
        <mxCell id="0" />
        <mxCell id="1" parent="0" />
        <mxCell id="3nuBFxr9cyL0pnOWT2aG-1" value="Coffee" style="shape=umlLifeline;perimeter=lifelinePerimeter;container=1;collapsible=0;recursiveResize=0;rounded=0;shadow=0;strokeWidth=1;" parent="1" vertex="1">
          <mxGeometry x="120" y="80" width="100" height="600" as="geometry" />
        </mxCell>
        <mxCell id="3nuBFxr9cyL0pnOWT2aG-2" value="" style="points=[];perimeter=orthogonalPerimeter;rounded=0;shadow=0;strokeWidth=1;" parent="3nuBFxr9cyL0pnOWT2aG-1" vertex="1">
          <mxGeometry x="45" y="70" width="10" height="350" as="geometry" />
        </mxCell>
        <mxCell id="3nuBFxr9cyL0pnOWT2aG-5" value="Farmer" style="shape=umlLifeline;perimeter=lifelinePerimeter;container=1;collapsible=0;recursiveResize=0;rounded=0;shadow=0;strokeWidth=1;" parent="1" vertex="1">
          <mxGeometry x="300" y="80" width="100" height="600" as="geometry" />
        </mxCell>
        <mxCell id="3nuBFxr9cyL0pnOWT2aG-6" value="" style="points=[];perimeter=orthogonalPerimeter;rounded=0;shadow=0;strokeWidth=1;" parent="3nuBFxr9cyL0pnOWT2aG-5" vertex="1">
          <mxGeometry x="45" y="70" width="10" height="170" as="geometry" />
        </mxCell>
        <mxCell id="mddaUq38hN6kJtH081J1-1" value="Distributor" style="shape=umlLifeline;perimeter=lifelinePerimeter;container=1;collapsible=0;recursiveResize=0;rounded=0;shadow=0;strokeWidth=1;" vertex="1" parent="1">
          <mxGeometry x="480" y="80" width="100" height="600" as="geometry" />
        </mxCell>
        <mxCell id="mddaUq38hN6kJtH081J1-2" value="" style="points=[];perimeter=orthogonalPerimeter;rounded=0;shadow=0;strokeWidth=1;" vertex="1" parent="mddaUq38hN6kJtH081J1-1">
          <mxGeometry x="45" y="190" width="10" height="110" as="geometry" />
        </mxCell>
        <mxCell id="mddaUq38hN6kJtH081J1-3" value="Retailer" style="shape=umlLifeline;perimeter=lifelinePerimeter;container=1;collapsible=0;recursiveResize=0;rounded=0;shadow=0;strokeWidth=1;" vertex="1" parent="1">
          <mxGeometry x="650" y="80" width="100" height="600" as="geometry" />
        </mxCell>
        <mxCell id="mddaUq38hN6kJtH081J1-4" value="" style="points=[];perimeter=orthogonalPerimeter;rounded=0;shadow=0;strokeWidth=1;" vertex="1" parent="mddaUq38hN6kJtH081J1-3">
          <mxGeometry x="45" y="310" width="10" height="80" as="geometry" />
        </mxCell>
        <mxCell id="mddaUq38hN6kJtH081J1-5" value="Consumer" style="shape=umlLifeline;perimeter=lifelinePerimeter;container=1;collapsible=0;recursiveResize=0;rounded=0;shadow=0;strokeWidth=1;" vertex="1" parent="1">
          <mxGeometry x="820" y="80" width="100" height="600" as="geometry" />
        </mxCell>
        <mxCell id="mddaUq38hN6kJtH081J1-6" value="" style="points=[];perimeter=orthogonalPerimeter;rounded=0;shadow=0;strokeWidth=1;" vertex="1" parent="mddaUq38hN6kJtH081J1-5">
          <mxGeometry x="45" y="340" width="10" height="80" as="geometry" />
        </mxCell>
        <mxCell id="mddaUq38hN6kJtH081J1-9" value="harvestItem()" style="text;html=1;align=center;verticalAlign=middle;resizable=0;points=[];autosize=1;strokeColor=none;" vertex="1" parent="1">
          <mxGeometry x="215" y="150" width="90" height="20" as="geometry" />
        </mxCell>
        <mxCell id="mddaUq38hN6kJtH081J1-11" value="processItem()" style="text;html=1;align=center;verticalAlign=middle;resizable=0;points=[];autosize=1;strokeColor=none;" vertex="1" parent="1">
          <mxGeometry x="215" y="180" width="90" height="20" as="geometry" />
        </mxCell>
        <mxCell id="mddaUq38hN6kJtH081J1-12" value="packItem()" style="text;html=1;align=center;verticalAlign=middle;resizable=0;points=[];autosize=1;strokeColor=none;" vertex="1" parent="1">
          <mxGeometry x="225" y="210" width="70" height="20" as="geometry" />
        </mxCell>
        <mxCell id="mddaUq38hN6kJtH081J1-13" value="sellItem()" style="text;html=1;align=center;verticalAlign=middle;resizable=0;points=[];autosize=1;strokeColor=none;" vertex="1" parent="1">
          <mxGeometry x="230" y="240" width="60" height="20" as="geometry" />
        </mxCell>
        <mxCell id="mddaUq38hN6kJtH081J1-14" style="edgeStyle=orthogonalEdgeStyle;rounded=0;orthogonalLoop=1;jettySize=auto;html=1;entryX=1.1;entryY=0.253;entryDx=0;entryDy=0;entryPerimeter=0;" edge="1" parent="1">
          <mxGeometry relative="1" as="geometry">
            <mxPoint x="343.5" y="230" as="sourcePoint" />
            <mxPoint x="176.5" y="230.07000000000005" as="targetPoint" />
            <Array as="points">
              <mxPoint x="330.5" y="230" />
              <mxPoint x="330.5" y="230" />
            </Array>
          </mxGeometry>
        </mxCell>
        <mxCell id="mddaUq38hN6kJtH081J1-15" style="edgeStyle=orthogonalEdgeStyle;rounded=0;orthogonalLoop=1;jettySize=auto;html=1;entryX=1.1;entryY=0.253;entryDx=0;entryDy=0;entryPerimeter=0;" edge="1" parent="1">
          <mxGeometry relative="1" as="geometry">
            <mxPoint x="343.5" y="260" as="sourcePoint" />
            <mxPoint x="176.5" y="260.07000000000005" as="targetPoint" />
            <Array as="points">
              <mxPoint x="330.5" y="260" />
              <mxPoint x="330.5" y="260" />
            </Array>
          </mxGeometry>
        </mxCell>
        <mxCell id="mddaUq38hN6kJtH081J1-17" style="edgeStyle=orthogonalEdgeStyle;rounded=0;orthogonalLoop=1;jettySize=auto;html=1;entryX=1.1;entryY=0.253;entryDx=0;entryDy=0;entryPerimeter=0;" edge="1" parent="1">
          <mxGeometry relative="1" as="geometry">
            <mxPoint x="343.5" y="170" as="sourcePoint" />
            <mxPoint x="176.5" y="170.07000000000005" as="targetPoint" />
            <Array as="points">
              <mxPoint x="330.5" y="170" />
              <mxPoint x="330.5" y="170" />
            </Array>
          </mxGeometry>
        </mxCell>
        <mxCell id="mddaUq38hN6kJtH081J1-19" style="edgeStyle=orthogonalEdgeStyle;rounded=0;orthogonalLoop=1;jettySize=auto;html=1;entryX=0.948;entryY=0.871;entryDx=0;entryDy=0;entryPerimeter=0;" edge="1" parent="1" source="mddaUq38hN6kJtH081J1-2" target="3nuBFxr9cyL0pnOWT2aG-6">
          <mxGeometry relative="1" as="geometry">
            <Array as="points">
              <mxPoint x="480" y="298" />
              <mxPoint x="480" y="298" />
            </Array>
          </mxGeometry>
        </mxCell>
        <mxCell id="mddaUq38hN6kJtH081J1-20" value="buyItem()" style="text;html=1;align=center;verticalAlign=middle;resizable=0;points=[];autosize=1;strokeColor=none;" vertex="1" parent="1">
          <mxGeometry x="405" y="280" width="70" height="20" as="geometry" />
        </mxCell>
        <mxCell id="mddaUq38hN6kJtH081J1-21" style="edgeStyle=orthogonalEdgeStyle;rounded=0;orthogonalLoop=1;jettySize=auto;html=1;entryX=1.1;entryY=0.253;entryDx=0;entryDy=0;entryPerimeter=0;" edge="1" parent="1">
          <mxGeometry relative="1" as="geometry">
            <mxPoint x="343.5" y="200" as="sourcePoint" />
            <mxPoint x="176.5" y="200.07000000000005" as="targetPoint" />
            <Array as="points">
              <mxPoint x="330.5" y="200" />
              <mxPoint x="330.5" y="200" />
            </Array>
          </mxGeometry>
        </mxCell>
        <mxCell id="mddaUq38hN6kJtH081J1-22" style="edgeStyle=orthogonalEdgeStyle;rounded=0;orthogonalLoop=1;jettySize=auto;html=1;" edge="1" parent="1" source="mddaUq38hN6kJtH081J1-2">
          <mxGeometry relative="1" as="geometry">
            <mxPoint x="180" y="360" as="targetPoint" />
            <Array as="points">
              <mxPoint x="350" y="360" />
              <mxPoint x="350" y="360" />
            </Array>
          </mxGeometry>
        </mxCell>
        <mxCell id="mddaUq38hN6kJtH081J1-23" value="shipItem()" style="text;html=1;align=center;verticalAlign=middle;resizable=0;points=[];autosize=1;strokeColor=none;" vertex="1" parent="1">
          <mxGeometry x="405" y="340" width="70" height="20" as="geometry" />
        </mxCell>
        <mxCell id="mddaUq38hN6kJtH081J1-25" value="receiveItem()" style="text;html=1;align=center;verticalAlign=middle;resizable=0;points=[];autosize=1;strokeColor=none;" vertex="1" parent="1">
          <mxGeometry x="580" y="400" width="90" height="20" as="geometry" />
        </mxCell>
        <mxCell id="mddaUq38hN6kJtH081J1-30" style="edgeStyle=orthogonalEdgeStyle;rounded=0;orthogonalLoop=1;jettySize=auto;html=1;" edge="1" parent="1" source="mddaUq38hN6kJtH081J1-4">
          <mxGeometry relative="1" as="geometry">
            <mxPoint x="180" y="421" as="targetPoint" />
            <Array as="points">
              <mxPoint x="220" y="421" />
              <mxPoint x="220" y="421" />
            </Array>
          </mxGeometry>
        </mxCell>
        <mxCell id="mddaUq38hN6kJtH081J1-31" style="edgeStyle=orthogonalEdgeStyle;rounded=0;orthogonalLoop=1;jettySize=auto;html=1;" edge="1" parent="1" source="mddaUq38hN6kJtH081J1-6">
          <mxGeometry relative="1" as="geometry">
            <mxPoint x="710" y="460" as="targetPoint" />
          </mxGeometry>
        </mxCell>
        <mxCell id="mddaUq38hN6kJtH081J1-32" value="purchaseItem()" style="text;html=1;align=center;verticalAlign=middle;resizable=0;points=[];autosize=1;strokeColor=none;" vertex="1" parent="1">
          <mxGeometry x="740" y="440" width="100" height="20" as="geometry" />
        </mxCell>
      </root>
    </mxGraphModel>
  </diagram>
</mxfile>
